<svg width="266" height="161" viewBox="0 0 266 161" fill="none" xmlns="http://www.w3.org/2000/svg">
<rect x="8.96466" y="39.89" width="244" height="110.496" rx="54" transform="rotate(-4.08575 8.96466 39.89)" fill="#941B0C"/>
<path d="M7 148.387C15.0063 139.167 18.5008 113.46 17.442 103.488L61.49 143.688C41.2923 138.331 17.8463 146.121 7 148.387Z" fill="#941B0C"/>
<path d="M202.457 86.3827L208.193 41.7415L218.954 39.7395L232.677 45.4485L215.995 89.8486L202.457 86.3827Z" fill="#F6AA1C"/>
<path d="M217.228 105.788C215.734 111.626 209.179 114.99 202.588 113.303C195.996 111.615 191.865 105.515 193.36 99.6768C194.854 93.8389 201.409 90.4743 208 92.1619C214.592 93.8494 218.723 99.9499 217.228 105.788Z" fill="#F6AA1C"/>
<path fill-rule="evenodd" clip-rule="evenodd" d="M224.048 107.534C221.396 117.893 210.398 122.569 200.842 120.122C191.286 117.676 183.888 108.289 186.54 97.9308C189.192 87.5721 200.19 82.8956 209.746 85.3422C219.302 87.7888 226.7 97.1752 224.048 107.534ZM202.588 113.303C209.179 114.99 215.734 111.626 217.228 105.788C218.723 99.95 214.592 93.8494 208 92.1619C201.409 90.4743 194.854 93.8389 193.36 99.6768C191.865 105.515 195.996 111.615 202.588 113.303Z" fill="#941B0C"/>
<path fill-rule="evenodd" clip-rule="evenodd" d="M205.749 114.685C226.103 118.041 244.838 104.781 247.997 85.6198C251.156 66.4587 237.667 47.8871 217.313 44.5318C196.959 41.1765 178.224 54.4362 175.065 73.5973C171.906 92.7585 185.394 111.33 205.749 114.685ZM204.604 121.631C228.579 125.583 251.117 109.973 254.943 86.7648C258.769 63.5564 242.434 41.5382 218.458 37.5859C194.483 33.6336 171.945 49.2439 168.119 72.4523C164.293 95.6608 180.628 117.679 204.604 121.631Z" fill="#941B0C"/>
<path d="M64.5469 113.314C61.9335 113.314 59.6669 112.781 57.7469 111.714C55.8269 110.647 54.2535 109.207 53.0269 107.394C51.8002 105.527 50.8935 103.421 50.3069 101.074C49.7202 98.7274 49.4535 96.2474 49.5069 93.6341C49.5602 91.0741 49.8802 88.5941 50.4669 86.1941C51.1069 83.7941 52.0402 81.6607 53.2669 79.7941C54.4935 77.9274 56.0402 76.4607 57.9069 75.3941C59.7735 74.2741 61.9869 73.7141 64.5469 73.7141C66.8935 73.7141 69.1602 74.2741 71.3469 75.3941C73.5869 76.5141 75.5869 78.0341 77.3469 79.9541C79.1069 81.8207 80.4935 83.9541 81.5069 86.3541C82.5202 88.7541 83.0269 91.2341 83.0269 93.7941C83.0269 96.4607 82.5202 98.9941 81.5069 101.394C80.4935 103.741 79.1069 105.821 77.3469 107.634C75.6402 109.394 73.6669 110.781 71.4269 111.794C69.2402 112.807 66.9469 113.314 64.5469 113.314ZM49.7469 131.234C47.4002 131.234 45.7202 130.887 44.7069 130.194C43.6935 129.501 43.0802 128.621 42.8669 127.554C42.7069 126.487 42.6269 125.367 42.6269 124.194V80.7541C42.6269 79.5807 42.7069 78.4607 42.8669 77.3941C43.0802 76.3274 43.6669 75.4474 44.6269 74.7541C45.6402 74.0074 47.3202 73.6341 49.6669 73.6341C51.5335 73.6341 53.0802 73.9007 54.3069 74.4341C55.5335 74.9141 56.4135 75.6874 56.9469 76.7541V124.114C57.0535 125.287 56.9735 126.407 56.7069 127.474C56.4935 128.594 55.8802 129.501 54.8669 130.194C53.8535 130.887 52.1469 131.234 49.7469 131.234ZM62.6269 99.7141C63.6935 99.7141 64.6535 99.4474 65.5069 98.9141C66.4135 98.3807 67.1335 97.6874 67.6669 96.8341C68.2002 95.9274 68.4669 94.9674 68.4669 93.9541C68.4669 92.8874 68.2002 91.9274 67.6669 91.0741C67.1869 90.1674 66.4935 89.4741 65.5869 88.9941C64.7335 88.4607 63.7735 88.1941 62.7069 88.1941C61.6402 88.1941 60.6535 88.4607 59.7469 88.9941C58.8935 89.5274 58.2002 90.2207 57.6669 91.0741C57.1869 91.9274 56.9469 92.8874 56.9469 93.9541C56.9469 94.9674 57.2135 95.9274 57.7469 96.8341C58.2802 97.6874 58.9735 98.3807 59.8269 98.9141C60.6802 99.4474 61.6135 99.7141 62.6269 99.7141ZM101.348 114.994C99.8548 114.994 98.1748 114.807 96.3081 114.434C94.4948 114.114 92.7081 113.634 90.9481 112.994C89.2415 112.301 87.8281 111.501 86.7081 110.594C85.5881 109.687 85.0281 108.647 85.0281 107.474C85.0281 106.941 85.1348 106.354 85.3481 105.714C85.6148 105.021 85.9615 104.274 86.3881 103.474C86.8148 102.674 87.3481 101.821 87.9881 100.914C88.3615 100.381 88.7881 99.9807 89.2681 99.7141C89.8015 99.4474 90.4148 99.3141 91.1081 99.3141C92.0681 99.3141 93.0015 99.5274 93.9081 99.9541C94.8148 100.327 95.7215 100.781 96.6281 101.314C97.5348 101.794 98.4681 102.247 99.4281 102.674C100.441 103.047 101.508 103.234 102.628 103.234C103.641 103.234 104.388 103.127 104.868 102.914C105.401 102.701 105.668 102.381 105.668 101.954C105.668 101.527 105.481 101.181 105.108 100.914C104.788 100.647 104.308 100.434 103.668 100.274C103.081 100.061 102.388 99.8741 101.588 99.7141C100.788 99.5541 99.9348 99.3674 99.0281 99.1541C98.1215 98.9407 97.1881 98.6741 96.2281 98.3541C95.0015 97.9807 93.8015 97.5007 92.6281 96.9141C91.4548 96.2741 90.3881 95.4474 89.4281 94.4341C88.5215 93.4207 87.7748 92.1941 87.1881 90.7541C86.6548 89.3141 86.3881 87.5541 86.3881 85.4741C86.3881 82.7007 87.0281 80.3807 88.3081 78.5141C89.5881 76.6474 91.4815 75.2341 93.9881 74.2741C96.4948 73.3141 99.5881 72.8341 103.268 72.8341C104.175 72.8341 105.081 72.8874 105.988 72.9941C106.895 73.1007 107.801 73.2607 108.708 73.4741C109.668 73.6874 110.601 73.9807 111.508 74.3541C112.468 74.6741 113.428 75.0474 114.388 75.4741C116.361 76.3274 117.375 77.5274 117.428 79.0741C117.481 80.5674 116.921 82.1407 115.748 83.7941C115.108 84.8074 114.441 85.5807 113.748 86.1141C113.108 86.5941 112.441 86.8341 111.748 86.8341C110.895 86.8341 109.961 86.5941 108.948 86.1141C107.935 85.6341 106.868 85.1541 105.748 84.6741C104.628 84.1941 103.508 83.9541 102.388 83.9541C101.748 83.9541 101.188 84.0341 100.708 84.1941C100.281 84.3007 99.9615 84.4874 99.7481 84.7541C99.5348 84.9674 99.4281 85.2341 99.4281 85.5541C99.4281 86.1407 99.6148 86.6207 99.9881 86.9941C100.415 87.3141 100.948 87.5807 101.588 87.7941C102.281 88.0074 103.055 88.1941 103.908 88.3541C104.815 88.5141 105.775 88.6741 106.788 88.8341C108.175 89.0474 109.588 89.3941 111.028 89.8741C112.521 90.3007 113.881 90.9407 115.108 91.7941C116.335 92.6474 117.321 93.8207 118.068 95.3141C118.815 96.8074 119.188 98.7541 119.188 101.154C119.188 105.687 117.668 109.127 114.628 111.474C111.641 113.821 107.215 114.994 101.348 114.994ZM137.911 114.994C136.417 114.994 134.737 114.807 132.871 114.434C131.057 114.114 129.271 113.634 127.511 112.994C125.804 112.301 124.391 111.501 123.271 110.594C122.151 109.687 121.591 108.647 121.591 107.474C121.591 106.941 121.697 106.354 121.911 105.714C122.177 105.021 122.524 104.274 122.951 103.474C123.377 102.674 123.911 101.821 124.551 100.914C124.924 100.381 125.351 99.9807 125.831 99.7141C126.364 99.4474 126.977 99.3141 127.671 99.3141C128.631 99.3141 129.564 99.5274 130.471 99.9541C131.377 100.327 132.284 100.781 133.191 101.314C134.097 101.794 135.031 102.247 135.991 102.674C137.004 103.047 138.071 103.234 139.191 103.234C140.204 103.234 140.951 103.127 141.431 102.914C141.964 102.701 142.231 102.381 142.231 101.954C142.231 101.527 142.044 101.181 141.671 100.914C141.351 100.647 140.871 100.434 140.231 100.274C139.644 100.061 138.951 99.8741 138.151 99.7141C137.351 99.5541 136.497 99.3674 135.591 99.1541C134.684 98.9407 133.751 98.6741 132.791 98.3541C131.564 97.9807 130.364 97.5007 129.191 96.9141C128.017 96.2741 126.951 95.4474 125.991 94.4341C125.084 93.4207 124.337 92.1941 123.751 90.7541C123.217 89.3141 122.951 87.5541 122.951 85.4741C122.951 82.7007 123.591 80.3807 124.871 78.5141C126.151 76.6474 128.044 75.2341 130.551 74.2741C133.057 73.3141 136.151 72.8341 139.831 72.8341C140.737 72.8341 141.644 72.8874 142.551 72.9941C143.457 73.1007 144.364 73.2607 145.271 73.4741C146.231 73.6874 147.164 73.9807 148.071 74.3541C149.031 74.6741 149.991 75.0474 150.951 75.4741C152.924 76.3274 153.937 77.5274 153.991 79.0741C154.044 80.5674 153.484 82.1407 152.311 83.7941C151.671 84.8074 151.004 85.5807 150.311 86.1141C149.671 86.5941 149.004 86.8341 148.311 86.8341C147.457 86.8341 146.524 86.5941 145.511 86.1141C144.497 85.6341 143.431 85.1541 142.311 84.6741C141.191 84.1941 140.071 83.9541 138.951 83.9541C138.311 83.9541 137.751 84.0341 137.271 84.1941C136.844 84.3007 136.524 84.4874 136.311 84.7541C136.097 84.9674 135.991 85.2341 135.991 85.5541C135.991 86.1407 136.177 86.6207 136.551 86.9941C136.977 87.3141 137.511 87.5807 138.151 87.7941C138.844 88.0074 139.617 88.1941 140.471 88.3541C141.377 88.5141 142.337 88.6741 143.351 88.8341C144.737 89.0474 146.151 89.3941 147.591 89.8741C149.084 90.3007 150.444 90.9407 151.671 91.7941C152.897 92.6474 153.884 93.8207 154.631 95.3141C155.377 96.8074 155.751 98.7541 155.751 101.154C155.751 105.687 154.231 109.127 151.191 111.474C148.204 113.821 143.777 114.994 137.911 114.994ZM179.863 114.274C177.036 114.274 174.583 113.954 172.503 113.314C170.423 112.674 168.69 111.687 167.303 110.354C165.97 109.021 164.956 107.341 164.263 105.314C163.623 103.287 163.303 100.914 163.303 98.1941V67.1541C163.303 65.9274 163.41 64.8074 163.623 63.7941C163.836 62.7274 164.45 61.8741 165.463 61.2341C166.476 60.5407 168.183 60.1941 170.583 60.1941C172.93 60.1941 174.61 60.5674 175.623 61.3141C176.636 62.0074 177.25 62.9141 177.463 64.0341C177.676 65.1541 177.783 66.3007 177.783 67.4741V97.4741C177.783 98.0607 177.81 98.5674 177.863 98.9941C177.97 99.3674 178.103 99.6607 178.263 99.8741C178.423 100.087 178.636 100.247 178.903 100.354C179.17 100.461 179.516 100.514 179.943 100.514C181.33 100.514 182.556 100.621 183.623 100.834C184.743 101.047 185.596 101.607 186.183 102.514C186.823 103.421 187.143 104.941 187.143 107.074C187.143 109.474 186.77 111.181 186.023 112.194C185.276 113.207 184.343 113.794 183.223 113.954C182.103 114.167 180.983 114.274 179.863 114.274ZM161.623 74.1141H170.983L182.023 73.7141C183.196 73.7141 184.316 73.8207 185.383 74.0341C186.503 74.2474 187.41 74.8607 188.103 75.8741C188.85 76.8874 189.223 78.6207 189.223 81.0741C189.223 83.3141 188.85 84.9407 188.103 85.9541C187.41 86.9674 186.503 87.6074 185.383 87.8741C184.316 88.1407 183.17 88.2741 181.943 88.2741L171.783 88.0341H161.303C159.49 87.9274 158.236 87.3407 157.543 86.2741C156.85 85.2074 156.503 83.4474 156.503 80.9941C156.503 78.7007 156.93 76.9941 157.783 75.8741C158.636 74.7007 159.916 74.1141 161.623 74.1141Z" fill="#F6AA1C"/>
</svg>
